<?xml version="1.0" encoding="UTF-8" standalone="no"?>
<svg
   xmlns:dc="http://purl.org/dc/elements/1.1/"
   xmlns:cc="http://creativecommons.org/ns#"
   xmlns:rdf="http://www.w3.org/1999/02/22-rdf-syntax-ns#"
   xmlns:svg="http://www.w3.org/2000/svg"
   xmlns="http://www.w3.org/2000/svg"
   xmlns:sodipodi="http://sodipodi.sourceforge.net/DTD/sodipodi-0.dtd"
   xmlns:inkscape="http://www.inkscape.org/namespaces/inkscape"
   enable-background="new 0 0 615 483"
   version="1.1"
   viewBox="0 0 297.85715 280"
   xml:space="preserve"
   id="svg92"
   sodipodi:docname="decorative-ornamental-font-letter-r-111111.svg"
   width="297.85715"
   height="280"
   inkscape:version="1.0.1 (3bc2e813f5, 2020-09-07)"><metadata
   id="metadata98"><rdf:RDF><cc:Work
       rdf:about=""><dc:format>image/svg+xml</dc:format><dc:type
         rdf:resource="http://purl.org/dc/dcmitype/StillImage" /><dc:title></dc:title></cc:Work></rdf:RDF></metadata><defs
   id="defs96">
	
	
	
	
	
	
	
</defs><sodipodi:namedview
   pagecolor="#ffffff"
   bordercolor="#666666"
   borderopacity="1"
   objecttolerance="10"
   gridtolerance="10"
   guidetolerance="10"
   inkscape:pageopacity="0"
   inkscape:pageshadow="2"
   inkscape:window-width="1366"
   inkscape:window-height="705"
   id="namedview94"
   showgrid="false"
   fit-margin-top="10"
   fit-margin-left="10"
   fit-margin-right="10"
   fit-margin-bottom="20"
   inkscape:showpageshadow="false"
   inkscape:zoom="1.3061355"
   inkscape:cx="250.12649"
   inkscape:cy="121.31002"
   inkscape:window-x="-8"
   inkscape:window-y="-8"
   inkscape:window-maximized="1"
   inkscape:current-layer="svg92"
   inkscape:document-rotation="0" />


















<g
   aria-label="R"
   style="font-style:normal;font-variant:normal;font-weight:normal;font-stretch:normal;font-size:6.66667px;line-height:1.25;font-family:'Open Sans';-inkscape-font-specification:'Open Sans, Normal';font-variant-ligatures:normal;font-variant-caps:normal;font-variant-numeric:normal;font-feature-settings:normal;text-align:start;letter-spacing:0px;word-spacing:0px;writing-mode:lr-tb;text-anchor:start;fill:#111111;fill-opacity:1;stroke:#000000;stroke-width:0.933079;stroke-opacity:1"
   id="text825"
   transform="matrix(1.0717051,0,0,1.071736,-58.803605,-52.732432)"><path
     d="m 165.66667,111.00002 c 0,-2 0.22222,-4 0.66667,-6 0.66667,-2.22223 1.77778,-4.11112 3.33333,-5.666672 1.77778,-1.777777 4.11111,-3.222222 7,-4.333333 3.11111,-1.111111 7.11111,-1.666667 12,-1.666667 4.22223,0 8.44445,0.555556 12.66667,1.666667 4.44445,0.888889 8.44445,2.777777 12,5.666665 3.55555,2.66667 6.44444,6.55556 8.66667,11.66667 2.22222,4.88889 3.33333,11.33333 3.33333,19.33333 0,8.66667 -1.22222,15.77778 -3.66667,21.33334 -2.22222,5.33333 -5.44444,9.66667 -9.66666,13 -4,3.11111 -8.88889,5.22222 -14.66667,6.33333 -5.55555,1.11111 -11.66666,1.66667 -18.33333,1.66667 h -13.33334 z m 24,144 c -4.88889,-0.22222 -8.88889,-0.55555 -12,-1 -3.11111,-0.44445 -5.55556,-1.44445 -7.33333,-3 -1.77778,-1.77778 -3,-4.22222 -3.66667,-7.33333 -0.66667,-3.33333 -1,-7.88889 -1,-13.66667 v -46.66667 c 5.77778,0 10.44445,0.22222 14,0.66667 3.77778,0.44444 6.77778,1.22222 9,2.33333 2.44445,0.88889 4.33334,2 5.66667,3.33333 1.33333,1.33333 2.55556,2.77778 3.66667,4.33334 l 29.33333,48 c 4,6.44445 9,12.11111 15,17 6,4.88889 13.11111,7.33333 21.33333,7.33333 2.22223,0 4.33334,-0.11111 6.33334,-0.33333 2.22222,-0.22222 4,-0.77778 5.33333,-1.66667 1.33333,-2 1.22222,-4.11111 -0.33333,-6.33333 -6.22223,0 -11.33334,-2 -15.33334,-6 -3.77777,-4.22222 -7.44444,-9.33333 -11,-15.33333 l -34.66666,-58.00001 c 2.88889,-0.88889 6.44444,-2.44444 10.66666,-4.66666 4.22223,-2.44445 8.22223,-5.55556 12,-9.33334 3.77778,-4 7,-8.66667 9.66667,-14 2.88889,-5.55555 4.33333,-11.88889 4.33333,-19 0,-14 -4.88889,-25.55556 -14.66666,-34.666665 -6.66667,-6.222223 -14.11111,-10.000001 -22.33334,-11.333334 -8.22222,-1.333333 -16.66666,-2 -25.33333,-2 -6.44445,0 -12.55556,0.333333 -18.33334,1 -5.77777,0.666667 -11.22222,1 -16.33333,1 H 137 C 131,85.444459 124.77778,85.333348 118.33334,85.333348 117.44445,86.222237 117,87.777792 117,90.000015 c 0,2 0.44445,3.444444 1.33334,4.333333 4.66667,0.222222 8.55555,0.555555 11.66666,1 3.11111,0.444445 5.55556,1.555556 7.33334,3.333334 2,1.555548 3.33333,3.999998 4,7.333338 0.66667,3.11111 1,7.55555 1,13.33333 v 110.66667 c 0,5.77778 -0.33333,10.33334 -1,13.66667 -0.66667,3.11111 -2,5.55555 -4,7.33333 -1.77778,1.55555 -4.22223,2.55555 -7.33334,3 -3.11111,0.44445 -6.99999,0.77778 -11.66666,1 -0.88889,0.88889 -1.33334,2.44444 -1.33334,4.66667 0,2.22222 0.44445,3.77777 1.33334,4.66666 6.22222,-0.22222 12.33333,-0.33333 18.33333,-0.33333 6.22222,-0.22222 12,-0.33333 17.33333,-0.33333 5.11111,0 10.77778,0.11111 17,0.33333 6.22223,0 12.44445,0.11111 18.66667,0.33333 0.88889,-0.88889 1.33334,-2.44444 1.33334,-4.66666 0,-2.22223 -0.44445,-3.77778 -1.33334,-4.66667 z m 94.66667,-99.66667 c 1.55556,-3.11111 3.00001,-6.22222 4.33334,-9.33333 1.55555,-3.33333 4,-5 7.33333,-5 4.66667,0 7,2.11111 7,6.33333 0,2.44445 -1,4.88889 -3,7.33333 -2,2.22223 -4.44444,4.33334 -7.33333,6.33334 -2.88889,1.77777 -5.77778,3.22222 -8.66667,4.33333 -2.88889,1.11111 -5.22223,1.66667 -7,1.66667 -1.55556,0 -2.55556,-0.22222 -3,-0.66667 1.77777,-0.88889 3.55555,-2.22222 5.33333,-4 2,-1.77778 3.66667,-4.11111 5,-7 z m -18.66667,-36.33333 c -1.77777,-4 -2.66666,-7.44445 -2.66666,-10.33334 0,-3.77777 1.33333,-7.44444 4,-10.999998 2.66667,-3.777778 7.22222,-5.666667 13.66666,-5.666667 6.00001,0 10.33334,1.777778 13.00001,5.333333 2.88889,3.333332 4.33333,7.111112 4.33333,11.333332 0,4.22223 -1.33333,7.55556 -4,10 -2.66667,2.44445 -5.22222,3.66667 -7.66667,3.66667 -2.66667,0 -4.77778,-0.66667 -6.33333,-2 -1.55556,-1.33333 -2.33334,-3 -2.33334,-5 0,-1.77778 0.55556,-3.11111 1.66667,-4 1.33333,-0.88889 2.55556,-1.33333 3.66667,-1.33333 1.11111,0 2.33334,0.33333 3.66667,1 1.55555,0.66667 2.22222,2.22222 2,4.66666 0.88889,-0.44444 1.88889,-1.11111 3,-2 1.33333,-1.11111 2,-2.77777 2,-5 0,-3.11111 -1.22222,-6 -3.66667,-8.66667 -2.22222,-2.666663 -5.33333,-3.999995 -9.33334,-3.999995 -4.44444,0 -7.88888,1.222222 -10.33333,3.666667 -2.22222,2.444448 -3.33333,5.333338 -3.33333,8.666668 0,1.11111 0.22222,2.66667 0.66666,4.66667 0.44445,1.77777 1,3.88888 1.66667,6.33333 0.88889,2.66667 2,6.88889 3.33333,12.66667 1.55556,5.55555 2.33334,10.55555 2.33334,15 0,2 -0.33333,4.44444 -1,7.33333 -0.66667,2.66667 -1.88889,5.44444 -3.66667,8.33333 -1.55555,2.66667 -3.66666,5.22222 -6.33333,7.66667 -2.66667,2.22222 -6,3.88889 -10,5 v 0.33333 c 4,1.11111 7.33333,2.77778 10,5 2.66667,2.22223 4.77778,4.77778 6.33333,7.66667 1.77778,2.66667 3,5.44444 3.66667,8.33333 0.66667,2.66667 1,5.11111 1,7.33334 0,2.22222 -0.22222,4.66666 -0.66667,7.33333 -0.22222,2.44445 -0.66666,5 -1.33333,7.66667 -0.44445,2.44445 -1,4.77778 -1.66667,7 -0.44445,2 -0.88889,3.66667 -1.33333,5 -2,5.11111 -3,8.88889 -3,11.33333 0,4.44445 2,7.88889 6,10.33334 -3.33333,-0.22223 -6.33333,-1.55556 -9,-4 -0.66667,-2 -1,-4.11111 -1,-6.33334 0,-1.33333 0.22222,-2.88889 0.66666,-4.66666 0.44445,-2 1.11111,-3.88889 2,-5.66667 l -0.33333,-0.33333 c -1.77778,1.55555 -3.33334,3 -4.66667,4.33333 -1.33333,1.33333 -2.66667,2.55556 -4,3.66667 l -2,-3 5,-5 -0.33333,-0.66667 c -1.11111,0.44445 -2.33334,0.77778 -3.66667,1 -1.11111,0.22222 -2.22222,0.44444 -3.33333,0.66667 l -2.33333,-4 c 2.44444,0 4.88888,-0.44445 7.33333,-1.33334 2.44445,-0.88889 4.55556,-2.22222 6.33333,-4 2,-1.77777 3.55556,-4.22222 4.66667,-7.33333 1.33333,-3.33333 2,-7.33333 2,-12 0,-1.55556 -0.44444,-3.77778 -1.33333,-6.66667 -0.66667,-2.88889 -2,-5.66666 -4,-8.33333 -1.77778,-2.66667 -4.33334,-5 -7.66667,-7 -3.33333,-2 -7.55556,-3 -12.66667,-3 -5.11111,0 -8.44444,1 -10,3 -1.33333,2 -2,4.11111 -2,6.33333 0,3.77778 1.66667,5.66667 5,5.66667 2.66667,0 4.22222,-1.11111 4.66667,-3.33334 -0.88889,0 -1.77778,-0.22222 -2.66667,-0.66666 -0.66667,-0.44445 -1,-1.11111 -1,-2 0,-1.11111 0.44445,-1.88889 1.33334,-2.33334 0.88889,-0.66667 1.88889,-1 3,-1 0.88889,0 1.88889,0.44445 3,1.33334 1.11111,0.66667 1.66666,1.88889 1.66666,3.66666 0,1.55556 -0.77778,3.33334 -2.33333,5.33334 -1.33333,1.77777 -3.33333,2.66666 -6,2.66666 -3.77778,0 -6.44445,-1 -8,-3 -1.55555,-2 -2.33333,-4.11111 -2.33333,-6.33333 0,-3.11111 0.77778,-5.77778 2.33333,-8 1.77778,-2.44445 4.55556,-4 8.33333,-4.66667 v -0.66666 c -2,-0.22223 -3.66667,-0.88889 -5,-2 l 1.33334,-1.33334 c 0.66667,-0.44444 1.33333,-0.88888 2,-1.33333 0.88889,0.44445 1.77777,0.77778 2.66666,1 1.11111,0.22222 2.44445,0.33333 4,0.33333 8.30107,-0.14431 15.90507,-3.49786 20.33334,-10 2,-2.66667 3.33333,-5.33333 4,-8 0.88889,-2.88889 1.33333,-5.11111 1.33333,-6.66666 0,-8 -1.55556,-13.77778 -4.66667,-17.33334 -2.88889,-3.55555 -6.44444,-5.88889 -10.66666,-7 -0.22223,-1.11111 -0.55556,-2.55555 -1,-4.33333 2.22222,0.44445 3.77777,1 4.66666,1.66667 l 0.66667,-0.66667 -3.33333,-3.33333 c -1.11111,-1.11111 -2.33334,-2.22223 -3.66667,-3.33334 -1.55555,-4.44444 -3.55555,-8.22222 -6,-11.33333 4.66667,4.66667 11,10.66667 19,18 z m 1,56.33333 c 3.11111,-0.44445 5.77778,-0.77778 8,-1 2.44445,-0.44445 4.33334,-0.88889 5.66667,-1.33333 1.55555,-0.22223 2.88889,-0.44445 4,-0.66667 1.33333,-0.22222 3,-0.66666 5,-1.33333 2,-0.66667 4.11111,-1.33333 6.33334,-2 2.44444,-0.66667 4.66666,-1.22222 6.66666,-1.66667 2.22223,-0.66667 4.11112,-1 5.66667,-1 2.88889,0 6.11111,0.55556 9.66667,1.66667 3.55555,0.88889 5.33333,3.33333 5.33333,7.33333 0,4 -1.77778,6.55556 -5.33333,7.66667 -3.55556,1.11111 -6.77778,1.66666 -9.66667,1.66666 -1.55555,0 -3.44444,-0.22222 -5.66667,-0.66666 -2,-0.66667 -4.22222,-1.33333 -6.66666,-2 -2.22223,-0.88889 -4.33334,-1.66667 -6.33334,-2.33334 -2,-0.88889 -3.66667,-1.44444 -5,-1.66666 -1.11111,-0.22223 -2.44445,-0.44445 -4,-0.66667 -3.11111,-0.44445 -7.66667,-1.11111 -13.66667,-2 z m 19.66667,53 c 2.44445,0 5,1.22222 7.66667,3.66667 2.88889,2.44445 4.33333,5.88889 4.33333,10.33333 0,4 -1.33333,7.77778 -4,11.33334 -2.66667,3.33333 -7.22222,5 -13.66667,5 0,-0.88889 -0.33333,-1.88889 -1,-3 l -0.66666,-1.33334 h 1.66666 c 4.22223,0 7.44445,-1.22222 9.66667,-3.66666 2.22223,-2.44445 3.33334,-5.22223 3.33334,-8.33334 0,-2.44444 -0.55556,-4.11111 -1.66667,-5 -1.11111,-1.11111 -2.22222,-1.88888 -3.33333,-2.33333 0.22222,2.44445 -0.33334,4 -1.66667,4.66667 -1.33333,0.44444 -2.55556,0.66666 -3.66667,0.66666 -1.11111,0 -2.33334,-0.33333 -3.66667,-1 -1.33333,-0.88889 -2,-2.22222 -2,-4 0,-4.66667 2.88889,-7 8.66667,-7 z m -9.33333,-43.66667 c 1.77777,0 4.11111,0.55556 7,1.66667 2.88889,1.11111 5.77778,2.55556 8.66667,4.33333 2.88889,1.77778 5.33333,3.88889 7.33333,6.33334 2,2.22222 3,4.55555 3,7 0,4.44444 -2.22222,6.66666 -6.66667,6.66666 -3.55555,0 -6,-1.55555 -7.33333,-4.66666 -1.33333,-3.33333 -2.88889,-6.55556 -4.66667,-9.66667 -1.11111,-2.88889 -2.66667,-5.22222 -4.66667,-7 -2,-1.77778 -3.88889,-3.22222 -5.66666,-4.33333 0.44444,-0.22223 1.44444,-0.33334 3,-0.33334 z M 239.33334,93.333348 c -2.66667,-2.444445 -5.44444,-4.555556 -8.33333,-6.333333 -1.33333,-2.888889 -2,-6.000001 -2,-9.333334 0,-4 0.66667,-7.222222 2,-9.666667 1.55555,-2.444445 3.33333,-4.333334 5.33333,-5.666667 2,-1.333333 4,-2.222222 6,-2.666667 2,-0.444444 3.44444,-0.666666 4.33333,-0.666666 1.11111,0 2.55556,0.222222 4.33334,0.666666 1.77777,0.222223 3.44444,0.888889 5,2 1.77777,1.111111 3.22222,2.666667 4.33333,4.666667 1.11111,2 1.66667,4.777778 1.66667,8.333334 0,2.888889 -1,5.333333 -3,7.333333 -2,2 -4.22222,3 -6.66667,3 -2.88889,0 -5,-0.666667 -6.33333,-2 -1.11111,-1.555555 -1.66667,-3.111111 -1.66667,-4.666666 0,-1.333333 0.33333,-2.555556 1,-3.666667 0.88889,-1.111111 2.22222,-1.666667 4,-1.666667 1.77778,0 2.88889,0.444445 3.33333,1.333334 0.66667,0.666667 1.11111,1.111111 1.33334,1.333333 0.66667,-0.222222 1.11111,-0.666666 1.33333,-1.333333 0.44445,-0.666667 0.66667,-1.333334 0.66667,-2.000001 0,-1.111111 -0.44445,-2.777777 -1.33334,-5 -0.88889,-2.444444 -3.55555,-3.666666 -8,-3.666666 -4.22222,0 -7.55555,1.333333 -10,4 -2.44444,2.444444 -3.66666,5.555555 -3.66666,9.333333 0,5.333333 2.11111,10.777778 6.33333,16.333334 z M 79.666669,184.00002 h -4.666667 c -1.777778,-0.22223 -3.444445,-0.66667 -5,-1.33334 -1.555556,-0.66667 -2.888889,-1.55555 -4,-2.66666 -0.888889,-1.11111 -1.333334,-2.66667 -1.333334,-4.66667 0,-4 1.777778,-6.55556 5.333334,-7.66667 3.555555,-1.11111 6.777778,-1.66666 9.666667,-1.66666 1.555555,0 3.333333,0.33333 5.333333,1 2.222223,0.44444 4.444445,1.11111 6.666667,2 2.222223,0.66667 4.333334,1.44444 6.333334,2.33333 2.222227,0.66667 4.000007,1.11111 5.333337,1.33333 1.11111,0.22223 2.44444,0.44445 4,0.66667 1.33333,0.22222 3.11111,0.55555 5.33333,1 2.22222,0.22222 5,0.55555 8.33333,1 -3.33333,0.44445 -6.11111,0.88889 -8.33333,1.33333 -2.22222,0.22223 -4,0.44445 -5.33333,0.66667 -1.55556,0.22222 -2.88889,0.44444 -4,0.66667 -1.33333,0.22222 -3.11111,0.66666 -5.333337,1.33333 -2,0.66667 -4.111111,1.33333 -6.333334,2 l -6.666667,2 c -2,0.44445 -3.777778,0.66667 -5.333333,0.66667 z m 21.666671,-61.66667 c -2.444447,0 -5.111115,-1.22222 -8.000004,-3.66667 -2.666667,-2.44444 -4,-5.88888 -4,-10.33333 0,-4 1.333333,-7.66667 4,-11.000002 2.666667,-3.555555 7.222224,-5.333333 13.666664,-5.333333 1.55556,0 3.22223,0.222222 5,0.666666 0.44445,1.111111 0.77778,2.111111 1,3 0.44445,0.888889 1,1.666667 1.66667,2.333334 L 115,98.333348 c -2,-1.333333 -4.66667,-2 -8,-2 -4.22222,0 -7.444441,1.222221 -9.666664,3.666662 -2.222222,2.44445 -3.333333,5.22223 -3.333333,8.33334 0,2.44445 0.555555,4.22222 1.666666,5.33333 1.111111,0.88889 2.222223,1.55556 3.333334,2 -0.222223,-2.44444 0.333333,-3.88888 1.666667,-4.33333 1.33333,-0.66667 2.44444,-1 3.33333,-1 1.11111,0 2.33334,0.44444 3.66667,1.33333 1.33333,0.66667 2,1.88889 2,3.66667 0,4.66667 -2.77778,7 -8.33333,7 z m 9.33333,43.66667 c -1.77778,0 -4.11111,-0.55556 -7,-1.66667 -2.88889,-1.11111 -5.777778,-2.55556 -8.666667,-4.33333 -2.888889,-1.77778 -5.333334,-3.88889 -7.333334,-6.33334 -2,-2.44444 -3,-4.88888 -3,-7.33333 0,-4.22222 2.111111,-6.33333 6.333333,-6.33333 3.555556,0 6.000001,1.66667 7.333334,5 1.555556,3.11111 3.222224,6.22222 5.000004,9.33333 1.11111,2.88889 2.66666,5.22222 4.66666,7 2,1.77778 3.77778,3.22222 5.33334,4.33333 -0.22223,0.22223 -1.11112,0.33334 -2.66667,0.33334 z M 143,80.666681 c -2.44444,-0.222222 -4.99999,-0.333333 -7.66666,-0.333333 H 127 c -0.88889,-1.555556 -1.33333,-3.555556 -1.33333,-6 0,-3.333334 0.55556,-6.000001 1.66667,-8.000001 1.11111,-2 2.44444,-3.555556 4,-4.666667 1.77777,-1.111111 3.55555,-1.777777 5.33333,-2 1.77778,-0.444444 3.22222,-0.666666 4.33333,-0.666666 0.88889,0 2.33334,0.222222 4.33334,0.666666 2,0.222223 4,1.000001 6,2.333334 2,1.333333 3.66667,3.222222 5,5.666667 1.55555,2.444444 2.33333,5.666666 2.33333,9.666667 0,0.444444 -0.11111,0.999999 -0.33333,1.666666 v 1.333334 C 157.66667,80.55557 156.88889,80.666681 156,80.666681 h -2 c 0.22223,-0.666667 0.33334,-1.777778 0.33334,-3.333333 0,-3.777778 -1.22222,-7 -3.66667,-9.666667 -2.22222,-2.666667 -5.44444,-4 -9.66667,-4 -2.44444,0 -4.33333,0.333333 -5.66666,1 -1.33333,0.666667 -2.33333,1.555555 -3,2.666666 -0.66667,0.888889 -1.11111,1.888889 -1.33334,3 v 2.333334 c 0,1.555555 0.77778,2.666666 2.33334,3.333333 0.44444,-0.444444 0.88888,-0.999999 1.33333,-1.666666 0.44445,-0.888889 1.55556,-1.333334 3.33333,-1.333334 1.77778,0 3.11111,0.666667 4,2 0.88889,1.111111 1.33334,2.333334 1.33334,3.666667 0,0.444445 -0.11111,0.777778 -0.33334,1 z M 246.66667,267.33335 c 4.22223,2.22223 9.00001,3.55556 14.33334,4 0.66667,1.77778 1,3.44445 1,5 0,3.33333 -0.55556,5.88889 -1.66667,7.66667 -1.11111,2 -2.55556,3.55556 -4.33333,4.66667 -1.55556,1.11111 -3.22223,1.77777 -5,2 -1.77778,0.44444 -3.22223,0.66666 -4.33334,0.66666 -0.88889,0 -2.33333,-0.22222 -4.33333,-0.66666 -2,-0.22223 -4,-1.00001 -6,-2.33334 -2,-1.11111 -3.77778,-2.88888 -5.33333,-5.33333 -1.33333,-2.22222 -2,-5.33333 -2,-9.33333 0,-5.11111 1.66667,-10.22223 5,-15.33334 0.66667,1.11111 1.66667,2 3,2.66667 -1.33333,2.22222 -2.33333,4.33333 -3,6.33333 -0.66667,1.77778 -1,3.88889 -1,6.33334 0,3.55555 1.22222,6.55555 3.66666,9 2.44445,2.66667 5.77778,4 10,4 2.22223,0 4.00001,-0.33333 5.33334,-1 1.33333,-0.66667 2.33333,-1.55556 3,-2.66667 0.66667,-0.88889 1,-1.88889 1,-3 0.22222,-0.88889 0.33333,-1.55555 0.33333,-2 0,-1.55555 -0.77778,-2.55555 -2.33333,-3 -0.22223,0.44445 -0.66667,1 -1.33334,1.66667 -0.44444,0.44444 -1.55555,0.66666 -3.33333,0.66666 -3.33333,0 -5,-1.77778 -5,-5.33333 0,-1.77778 0.77778,-3.33334 2.33333,-4.66667 z m 9.66667,-54.66666 c 0,3.11111 -0.88889,5.33333 -2.66667,6.66666 -1.77777,1.11111 -3.22222,1.66667 -4.33333,1.66667 -2.22222,0 -3.88889,-0.44444 -5,-1.33333 l -1.33333,-2.33334 v -1 c 0,-3.11111 1.88889,-4.66666 5.66666,-4.66666 h 1 c 0.66667,0 1.22222,0.11111 1.66667,0.33333 0,-0.88889 -0.55556,-2.11112 -1.66667,-3.66667 -0.88889,-1.77778 -3.11111,-2.66667 -6.66666,-2.66667 -2.22223,0 -4.11112,0.66667 -5.66667,2 l -2,-3.33333 c 1.33333,-1.11111 2.66667,-1.88889 4,-2.33333 1.55555,-0.44445 2.88889,-0.66667 4,-0.66667 3.11111,0 6,1 8.66667,3 2.88889,2 4.33333,4.77778 4.33333,8.33334 z m -153,-17.33334 c -1.55556,3.11111 -3.11112,6.33334 -4.666671,9.66667 -1.555555,3.11111 -3.888889,4.66666 -7,4.66666 -4.666667,0 -7,-2.11111 -7,-6.33333 0,-2.44445 1,-4.77778 3,-7 2,-2.44445 4.444445,-4.55556 7.333334,-6.33333 2.888889,-2 5.777777,-3.55556 8.666667,-4.66667 2.88889,-1.11111 5.22222,-1.66667 7,-1.66667 1.55555,0 2.44444,0.11111 2.66667,0.33334 -1.55556,1.11111 -3.33334,2.55555 -5.33334,4.33333 -1.77777,1.77778 -3.33333,4.11111 -4.66666,7 z m 9.33333,8.33333 c 0,-2 0.33333,-4.33333 1,-7 0.66667,-2.88889 1.77778,-5.66666 3.33333,-8.33333 1.77778,-2.88889 3.88889,-5.44444 6.33334,-7.66667 2.66667,-2.44444 6,-4.22222 10,-5.33333 v -0.33333 c -4,-1.11111 -7.33333,-2.77778 -10,-5 -2.44445,-2.22223 -4.55556,-4.66667 -6.33334,-7.33334 -1.55555,-2.88889 -2.66666,-5.77777 -3.33333,-8.66666 -0.66667,-2.88889 -1,-5.44445 -1,-7.66667 0,-2 0.11111,-4.22222 0.33333,-6.66667 0.44445,-2.66667 0.88889,-5.22222 1.33334,-7.66666 0.44444,-2.66667 0.99999,-5 1.66666,-7 0.66667,-2.22223 1.22222,-4.00001 1.66667,-5.33334 1.77778,-4.88889 2.66667,-8.66666 2.66667,-11.33333 0,-3.55555 -1.33333,-6.55555 -4,-9.000002 H 118 c 0.88889,0 1.66667,0.111111 2.33334,0.333334 h 2 c 1.55555,2.444448 2.33333,5.333338 2.33333,8.666668 0,1.33333 -0.22222,3 -0.66667,5 -0.44444,1.77778 -1.22222,3.55556 -2.33333,5.33333 l 0.66667,0.33334 c 2.66667,-2.44445 5.11111,-4.66667 7.33333,-6.66667 2.44445,-2.22222 4.55556,-4.33333 6.33333,-6.33333 0.44445,1.77777 0.66667,3.33333 0.66667,4.66666 -1.55555,1.55556 -3.11111,3.00001 -4.66667,4.33334 -1.55555,1.33333 -2.88889,2.66667 -4,4 l 0.33334,0.66666 c 1.33333,-0.66667 2.66667,-1.11111 4,-1.33333 1.55555,-0.22222 3.11111,-0.44444 4.66666,-0.66667 v 1.66667 2.66667 c -5.11111,0.44444 -9.66666,2.33333 -13.66666,5.66666 -4,3.33333 -6,9.55556 -6,18.66667 0,1.55555 0.22222,3.66666 0.66666,6.33333 0.66667,2.44445 1.77778,4.88889 3.33334,7.33334 1.55555,2.44444 3.55555,4.77777 6,7 2.44444,2 5.66666,3.33333 9.66666,4 v 8.66666 c -4,0.66667 -7.22222,2.11111 -9.66666,4.33334 -2.44445,2 -4.44445,4.22222 -6,6.66666 -1.55556,2.44445 -2.66667,4.88889 -3.33334,7.33334 -0.44444,2.22222 -0.66666,4.11111 -0.66666,5.66666 0,9.55556 2,16.00001 6,19.33334 4,3.33333 8.55555,5.22222 13.66666,5.66667 v 1.33333 2.66667 c -2.88889,0 -5.66666,-0.66667 -8.33333,-2 l -0.33333,0.33333 c 1.11111,1.33333 2.33333,2.66667 3.66666,4 1.55556,1.33333 3.11112,2.77778 4.66667,4.33333 0,1.11111 -0.11111,2 -0.33333,2.66667 0,0.66667 -0.11111,1.33333 -0.33334,2 -2,-1.77778 -4.11111,-3.77778 -6.33333,-6 -2.22222,-2.22222 -4.66666,-4.55555 -7.33333,-7 l -0.66667,0.66667 c 2,3.77777 3,7.11111 3,10 0,3.11111 -0.66667,5.77777 -2,8 -0.88889,0.22222 -2.44444,0.33333 -4.66667,0.33333 h -0.33333 c 1.77778,-2.22222 2.66667,-4.77778 2.66667,-7.66667 0,-1.11111 -0.22222,-2.66666 -0.66667,-4.66666 -0.22222,-2 -0.77778,-4.22222 -1.66667,-6.66667 -0.44444,-1.33333 -0.99999,-3 -1.66666,-5 -0.44445,-2.22222 -1,-4.55555 -1.66667,-7 -0.44445,-2.66667 -0.88889,-5.33333 -1.33333,-8 -0.44445,-2.66667 -0.66667,-5.11111 -0.66667,-7.33334 z m 0.66667,49.33334 c -0.88889,1.77778 -1.33334,3.44445 -1.33334,5 -1.11111,0.22222 -2.77777,0.33333 -5,0.33333 -6,0 -10.444442,-1.66667 -13.333331,-5 -2.666667,-3.55555 -4,-7.44444 -4,-11.66666 0,-4.22223 1.333333,-7.44445 4,-9.66667 2.666667,-2.44445 5.222224,-3.66667 7.666671,-3.66667 5.55555,0 8.33333,2.33333 8.33333,7 0,1.77778 -0.55556,3.11111 -1.66667,4 -1.11111,0.66667 -2.22222,1 -3.33333,1 -1.11111,0 -2.44445,-0.33333 -4,-1 -1.333334,-0.66667 -1.88889,-2.22222 -1.666667,-4.66666 -0.888889,0.44444 -2.000001,1.22222 -3.333334,2.33333 -1.111111,1.11111 -1.666666,2.66667 -1.666666,4.66667 0,3.33333 1.111111,6.33333 3.333333,9 2.444443,2.44444 5.666664,3.66666 9.666664,3.66666 2,0 4.11111,-0.44444 6.33334,-1.33333 z m 17.66666,-115 c 0,-2.44445 0.66667,-4.33334 2,-5.66667 1.55556,-1.33333 2.88889,-2.11111 4,-2.33333 v 9 c -0.22222,-0.22223 -0.44444,-0.33334 -0.66666,-0.33334 0,1.11111 0.22222,2 0.66666,2.66667 v 6 c -1.77777,-0.88889 -3.22222,-2.11111 -4.33333,-3.66667 C 131.55556,142.11113 131,140.22224 131,138.00002 Z m 27,130.66667 c 0.44445,1.77777 0.66667,3.22222 0.66667,4.33333 0,4 -0.77778,7.11111 -2.33333,9.33333 -1.33333,2.44445 -3,4.22223 -5,5.33334 -2,1.33333 -4,2.22222 -6,2.66666 -2,0.44445 -3.44445,0.66667 -4.33334,0.66667 -1.11111,0 -2.55555,-0.22222 -4.33333,-0.66667 -1.77778,-0.22222 -3.55556,-0.88889 -5.33333,-2 -1.55556,-0.88889 -2.88889,-2.44444 -4,-4.66666 -1.11111,-2 -1.66667,-4.66667 -1.66667,-8 0,-2 0.77778,-4.22222 2.33333,-6.66667 h 14.33334 c 0.66667,1.11111 1,2.11111 1,3 0,1.33333 -0.44445,2.55556 -1.33334,3.66667 -0.88889,1.11111 -2.22222,1.66666 -4,1.66666 -1.77777,0 -2.88888,-0.33333 -3.33333,-1 -0.44445,-0.66667 -0.88889,-1.22222 -1.33333,-1.66666 -1.11111,0.66667 -1.66667,1.66667 -1.66667,3 v 2.33333 c 0.22222,0.88889 0.66666,1.77778 1.33333,2.66667 0.66667,1.11111 1.55556,1.99999 2.66667,2.66666 1.33333,0.66667 3.11111,1 5.33333,1 4.22223,0 7.44445,-1.33333 9.66667,-4 2.44445,-2.44444 3.66667,-5.44444 3.66667,-9 0,-2 -0.11111,-3.55555 -0.33334,-4.66666 z m -27,-56.33334 c 0,-2 0.55556,-3.77778 1.66667,-5.33333 1.11111,-1.55556 2.55556,-2.77778 4.33333,-3.66667 v 5.33333 c -0.44444,0.44445 -0.66666,1 -0.66666,1.66667 v 1.33334 L 137,211.33335 v 9.33334 c -1.11111,-0.44445 -2.44444,-1.22223 -4,-2.33334 -1.33333,-1.33333 -2,-3.33333 -2,-6 z"
     style="font-style:normal;font-variant:normal;font-weight:normal;font-stretch:normal;font-size:333.333px;font-family:'Apex Lake';-inkscape-font-specification:'Apex Lake';fill:#111111;fill-opacity:1;stroke:#000000;stroke-width:0.933079;stroke-opacity:1"
     id="path814"
     inkscape:connector-curvature="0"
     sodipodi:nodetypes="scccscccscccscscsccscccsccsscccccccccscssssccscsccssccscsccsccscccssccssccccscscscscscscccscscscccsccccccccsccccsccscccsccccccccccsccsscssccscscscsssccccccccccscccccsccccccccsccscscsccccccscsccccssscccscssssccssccscsccscsssccsssscscscccscscscscscscscccccccccccscsscscsccccscscccscssssccssccscscscscccscscsccscscssccsccscsccccscccscccscccscssccscssscscsccsssccscccscsccssccsscccscccccccssccccscsccscccccccccccccsscsccccscsscccccccccsccscscscccccsccscscsscscccscscscccccccscscccscccsccsssscscccscsccscccsccccs" /></g>




<g transform="translate(10, 268)">  <path
     id="path833"
     style="font-size:11px;fill:#bbbbbb"
     d="m 47.099139,1 c 0,2.785807 0,5.571615 0,8.357422 0.336589,0 0.673177,0 1.009766,0 0,-1.492839 0,-2.985677 0,-4.478516 0.734878,-0.63751 2.306024,-1.222982 2.848262,-0.08188 0.278327,0.918406 0.103034,1.896215 0.147834,2.844253 0,0.572046 0,1.144093 0,1.716139 0.336588,0 0.673177,0 1.009765,0 -0.04032,-1.586492 0.0905,-3.185124 -0.08604,-4.763334 -0.263861,-1.225268 -1.77799,-1.757192 -2.837556,-1.214394 -0.475175,0.186034 -1.286643,0.921151 -1.082273,-0.0062 0,-0.791155 0,-1.582311 0,-2.373467 -0.336584,0 -0.673195,0 -1.009763,0 z m 40.878907,0 c 0,0.866536 0,1.733073 0,2.599609 -1.267117,-0.782933 -3.219192,-0.430669 -3.852886,1.006676 -0.667723,1.336008 -0.576271,3.099777 0.360774,4.283954 0.906871,0.930935 2.547941,0.783098 3.411106,-0.125578 -0.0059,0.516749 0.258965,0.694173 0.780978,0.592761 0.450356,0.147098 0.283244,-0.323271 0.309793,-0.59998 0,-2.585814 0,-5.171628 0,-7.757442 -0.336588,0 -0.673177,0 -1.009765,0 z M 4.0815615,1.214844 c -1.270503,-0.05781 -2.818921,0.649361 -2.9887349,2.043628 -0.20654812,1.167321 0.7564776,2.214186 1.8700399,2.39622 0.9546903,0.250777 2.038458,0.16718 2.864789,0.786714 0.807458,0.95514 -0.335077,2.248639 -1.416056,2.125769 C 3.2121188,8.678893 2.013116,8.238225 1.0569583,7.53125 0.94800728,8.29909 0.89371398,9.151735 1.8828985,9.184181 3.3532105,9.640226 5.1525995,9.730388 6.4263825,8.736633 7.4106285,7.904292 7.5336745,6.057789 6.3005025,5.390254 5.1351145,4.660262 3.590645,4.994686 2.4640453,4.203468 1.7046717,3.369423 2.5975009,2.109131 3.6176791,2.16804 4.7554905,2.011058 5.9155785,2.388767 6.8503055,3.029297 6.9592325,2.289211 6.9928105,1.477595 6.0293245,1.476937 5.3965525,1.299278 4.7388495,1.210035 4.0815615,1.214844 Z m 22.2089845,0 c -1.709272,-0.09554 -3.479224,1.088445 -3.763434,2.832548 -0.432259,1.759773 -0.06573,4.017426 1.646895,4.966793 1.358741,0.736758 3.05146,0.590083 4.416527,-0.05214 0.680945,0.03217 0.625243,-2.018154 -0.120991,-1.103607 C 27.741644,8.497325 26.686445,8.667797 25.744949,8.543296 24.617107,8.4195 23.779515,7.455695 23.583414,6.374468 23.286579,5.047039 23.521074,3.377321 24.704374,2.545893 25.971075,1.760872 27.664504,2.126257 28.755674,3.052942 29.266855,3.256272 28.968358,2.14447 28.92255,1.881594 28.111496,1.465748 27.205928,1.210082 26.290546,1.214841 Z m 41.792968,0 c -1.270503,-0.05781 -2.818921,0.649361 -2.988735,2.043628 -0.206221,1.166571 0.755412,2.214135 1.868737,2.396148 0.955154,0.250725 2.038998,0.167842 2.866092,0.786786 0.803825,0.9559 -0.334598,2.248888 -1.416223,2.12578 C 67.213312,8.678851 66.014146,8.237569 65.056958,7.53125 64.952671,8.299464 64.89433,9.151633 65.884846,9.184181 67.355158,9.640226 69.154547,9.730388 70.428331,8.736633 71.412576,7.904292 71.535622,6.057789 70.30245,5.390254 69.137062,4.660262 67.592592,4.994686 66.465992,4.203468 65.706619,3.369423 66.599448,2.109131 67.619626,2.16804 68.757438,2.011058 69.917526,2.388767 70.852253,3.029297 70.96118,2.289211 70.994758,1.477595 70.031272,1.476936 69.398503,1.299278 68.7408,1.210035 68.083514,1.214844 Z m 22.837891,0.0918 c 0,0.348958 0,0.697917 0,1.046875 0.379558,0 0.759117,0 1.138675,0 0,-0.348959 0,-0.697919 0,-1.046878 -0.379558,1e-6 -0.759117,2e-6 -1.138675,3e-6 z M 37.054218,1.632815 c 0,0.57487 0,1.14974 0,1.72461 -0.890141,-0.460911 -0.977874,1.226957 -0.08956,0.84039 0.209458,0.59319 0.04113,1.317016 0.08689,1.961159 0.03983,0.871543 -0.128025,1.830592 0.318555,2.618498 0.605933,0.794843 1.91704,0.937254 2.724374,0.436826 C 40.553672,8.20257 39.57449,8.470474 38.987776,8.641231 38.033387,8.527186 38.001433,7.440683 38.063991,6.691421 c 0,-0.828133 0,-1.656266 0,-2.484399 0.694662,0 1.389323,0 2.083985,0 0.127125,-0.550494 -0.03471,-1.01834 -0.649972,-0.849609 -0.478004,0 -0.956009,0 -1.434014,0 0,-0.57487 0,-1.14974 0,-1.72461 -0.336592,5e-6 -0.673188,2e-6 -1.009778,1.2e-5 z m 35.792968,0 c 0,0.57487 0,1.14974 0,1.72461 -0.890141,-0.460911 -0.977872,1.226958 -0.08956,0.840389 0.209456,0.593191 0.04113,1.317016 0.08689,1.96116 0.03983,0.871543 -0.128025,1.830592 0.318555,2.618498 0.605932,0.794843 1.917039,0.937255 2.724373,0.436826 0.459195,-1.011729 -0.519987,-0.743824 -1.106701,-0.573067 -0.954391,-0.114044 -0.98634,-1.200549 -0.923786,-1.94981 0,-0.828133 0,-1.656266 0,-2.484399 0.694661,0 1.389323,0 2.083984,0 0.127125,-0.550494 -0.03471,-1.01834 -0.649972,-0.849609 -0.478004,0 -0.956009,0 -1.434013,0 0,-0.57487 0,-1.14974 0,-1.72461 -0.336591,5e-6 -0.673187,2e-6 -1.009776,1.2e-5 z M 18.808124,3.191409 C 18.094905,2.935351 17.239001,4.03514 16.807568,3.745844 16.924933,3.064297 15.42404,3.190079 15.784686,3.907384 c 0,1.81668 0,3.633361 0,5.450041 0.336589,0 0.673177,0 1.009766,0 0,-1.492839 0,-2.985677 0,-4.478516 0.735405,-0.637705 2.305453,-1.222485 2.849218,-0.08209 0.278696,0.901617 0.104456,1.862968 0.148831,2.794465 0,0.588713 0,1.177425 0,1.766138 0.336588,0 0.673177,0 1.009765,0 -0.04399,-1.593518 0.09877,-3.20141 -0.09401,-4.785076 -0.20719,-0.835885 -1.034297,-1.45801 -1.900131,-1.38094 z m 37.74414,0 c -1.521655,-0.106782 -2.870485,1.256511 -2.903391,2.752487 -0.187662,1.362639 0.449907,2.994629 1.887441,3.369754 1.127624,0.363449 2.364488,0.153591 3.426107,-0.321459 0,-0.367188 0,-0.734375 0,-1.101563 C 57.907373,8.60552 56.316536,9.000861 55.260559,8.083505 54.886278,7.776964 54.254723,6.45525 55.061618,6.462891 c 1.339981,0 2.679962,0 4.019943,0 C 59.160221,5.347343 58.934457,3.952653 57.79557,3.440653 57.409264,3.256935 56.977013,3.191152 56.552264,3.191409 Z m 39.789067,0 c -1.43435,-0.105366 -2.683091,1.182808 -2.741489,2.580836 -0.215182,1.416573 0.332234,3.201116 1.850159,3.631665 1.41416,0.476399 3.21103,-0.333712 3.50065,-1.869901 0.430759,-1.474988 0.0677,-3.439789 -1.4614,-4.123733 -0.36119,-0.15464 -0.75631,-0.220409 -1.14792,-0.218867 z m 16.300779,0 c -1.43435,-0.105366 -2.6831,1.182806 -2.74149,2.580836 -0.21518,1.416573 0.33223,3.201117 1.85016,3.631665 1.41416,0.476399 3.21103,-0.333712 3.50065,-1.869901 0.43076,-1.474988 0.0677,-3.439789 -1.4614,-4.123733 -0.36119,-0.15464 -0.75631,-0.220409 -1.14792,-0.218867 z m 7.2832,0 c -0.69559,-0.265373 -1.51917,0.857085 -1.9322,0.554435 0.11735,-0.681549 -1.38352,-0.555761 -1.02288,0.16154 0,1.81668 0,3.633361 0,5.450041 0.33659,0 0.67318,0 1.00977,0 0,-1.492839 0,-2.985677 0,-4.478516 0.69289,-0.640703 2.26346,-1.226266 2.74185,-0.07252 0.2374,0.922549 0.08,1.890099 0.12142,2.834903 0,0.572045 0,1.14409 0,1.716135 0.33659,0 0.67318,0 1.00977,0 -0.0184,-1.484296 0.0406,-2.969838 -0.0373,-4.453125 0.70054,-0.647981 2.28723,-1.268386 2.77851,-0.09505 0.23758,0.921564 0.0806,1.88819 0.12187,2.832036 0,0.572045 0,1.14409 0,1.716135 0.33659,0 0.67317,0 1.00976,0 -0.0368,-1.575996 0.0821,-3.161996 -0.0772,-4.731206 -0.19216,-1.116344 -1.45733,-1.724181 -2.48513,-1.365937 -0.77965,0.178711 -1.55659,1.282397 -2.09702,0.257269 -0.33141,-0.229515 -0.74,-0.337547 -1.14122,-0.326142 z M 32.478046,3.212899 C 31.83872,3.35545 30.468978,3.021271 30.522724,4.017333 c -0.153066,0.951473 1.001736,0.0084 1.530921,0.112201 0.701846,-0.07327 1.710297,-0.05734 1.99654,0.727327 0.174575,1.052501 -1.227212,0.402038 -1.837139,0.694747 -0.996071,0.09102 -2.155836,0.680376 -2.219204,1.801023 -0.147918,1.103215 0.758253,2.235243 1.909329,2.172302 0.780462,0.151097 1.757244,-0.583619 2.18709,-0.693631 -0.342005,0.814461 1.426891,0.762288 0.996486,-0.075 -0.03395,-1.410695 0.09441,-2.837608 -0.08715,-4.237248 C 34.664798,3.459355 33.464183,3.167251 32.478044,3.2129 Z m 11.404296,0.0059 c -1.504029,-0.1101 -2.896586,1.182736 -2.926571,2.687182 -0.176355,1.346973 0.370407,3.009517 1.799543,3.420825 1.006432,0.331935 2.126029,0.140974 3.048904,-0.346288 0,-0.370443 0,-0.740885 0,-1.111328 C 44.92866,8.497487 43.615859,9.003733 42.669548,8.234348 41.817468,7.402856 41.79671,5.973359 42.296661,4.953214 42.859892,3.853682 44.354119,3.932664 45.266704,4.515 45.797582,5.008321 45.862768,4.730534 45.804218,4.189913 46.002944,3.532111 45.205541,3.487446 44.749673,3.325198 44.466104,3.256018 44.1745,3.216812 43.882342,3.218799 Z m 63.195318,0 c -1.50374,-0.109716 -2.89438,1.183882 -2.92622,2.687075 -0.17586,1.346872 0.37216,3.007709 1.79939,3.421001 1.00705,0.332174 2.12691,0.140147 3.05065,-0.346357 0,-0.370443 0,-0.740885 0,-1.111328 -0.85579,0.602843 -2.08812,1.11006 -3.04591,0.433796 -0.97471,-0.825288 -0.99108,-2.4035 -0.39943,-3.455619 0.65696,-1.063404 2.14404,-0.856747 3.04678,-0.254061 0.55917,0.574537 0.36898,-0.179964 0.39856,-0.553388 0.0839,-0.665216 -0.97239,-0.606427 -1.42416,-0.786129 -0.1654,-0.02376 -0.33253,-0.03607 -0.49966,-0.03499 z M 8.7807805,3.357471 c 0.04122,1.588588 -0.09266,3.189826 0.08835,4.769773 0.2882975,1.277783 1.9188885,1.782465 2.9848915,1.142565 0.570565,-0.314218 0.986078,-0.69488 1.039564,0.10363 0.612721,0.09893 1.075923,-0.03721 0.904769,-0.715925 0,-1.766681 0,-3.533362 0,-5.300043 -0.336589,0 -0.673177,0 -1.009766,0 0,1.49349 0,2.986979 0,4.480469 C 12.049818,8.472357 10.472687,9.063989 9.935767,7.91136 9.659305,7.011411 9.836127,6.052926 9.790541,5.123616 c 0,-0.588714 0,-1.177427 0,-1.766141 -0.336588,0 -0.673175,0 -1.0097625,0 z m 51.8320305,0 c 0,2 0,4 0,6 0.336589,0 0.673177,0 1.009766,0 0,-1.419937 0,-2.839875 0,-4.259812 C 62.305908,4.248182 63.623484,4.470105 64.373218,4.285654 64.662142,3.202819 63.474485,3.180188 62.769621,3.532115 62.33026,3.657729 61.329158,4.669937 61.650752,3.548925 61.578242,3.173842 60.901187,3.422475 60.612811,3.357471 Z m 16.503907,0 c 0.04121,1.588688 -0.09266,3.190025 0.08837,4.770072 0.288873,1.277581 1.919942,1.782057 2.986002,1.1425 0.570429,-0.314472 0.984752,-0.694831 1.038441,0.103396 0.612721,0.09893 1.075923,-0.03721 0.904769,-0.715925 0,-1.766681 0,-3.533362 0,-5.300043 -0.336589,0 -0.673177,0 -1.009766,0 0,1.49349 0,2.986979 0,4.480469 -0.737676,0.635545 -2.315168,1.225256 -2.851584,0.0736 -0.275539,-0.900165 -0.09889,-1.858559 -0.144511,-2.787924 0,-0.588714 0,-1.177427 0,-1.766141 -0.337239,0 -0.674478,0 -1.011717,0 z m 13.86914,0 c 0,2 0,4 0,6 0.336587,0 0.673175,0 1.009762,0 0,-2 0,-4 0,-6 -0.336587,0 -0.673175,0 -1.009762,0 z m -34.488281,0.66597 c 0.834454,-0.299054 2.115691,1.166553 1.301584,1.666015 -1.045841,0 -2.091681,0 -3.137522,0 0.03552,-0.931763 0.895214,-1.740889 1.835938,-1.666015 z m 39.843754,0.03711 c 1.27816,-0.08268 1.86571,1.379182 1.72663,2.457497 0.1044,1.157321 -0.86159,2.466524 -2.11858,2.102129 -1.08783,-0.246126 -1.39757,-1.435427 -1.33929,-2.408618 -0.0443,-0.944333 0.47196,-2.10084 1.54394,-2.143186 z m 16.300779,0 c 1.27817,-0.08269 1.86571,1.379181 1.72663,2.457497 0.10438,1.157271 -0.86148,2.466417 -2.11844,2.102171 -1.08845,-0.245686 -1.39611,-1.435626 -1.33748,-2.408502 -0.0438,-0.943654 0.47077,-2.100327 1.54223,-2.143379 z m -26.097658,0.05469 c 0.586064,0.02158 1.671157,0.05379 1.433594,0.922208 0,0.947805 0,1.895609 0,2.843414 C 87.206225,8.596336 85.56361,8.983149 85.022883,7.812673 84.602816,6.825616 84.604605,5.534304 85.26489,4.653333 85.583832,4.295926 86.065339,4.090903 86.544452,4.115238 Z M 34.085468,6.210945 c 0,0.55664 0,1.113281 0,1.669921 -0.771631,0.679272 -2.403138,1.171243 -2.999156,0.05689 -0.341792,-1.047058 0.799111,-1.661463 1.692306,-1.626694 0.434258,-0.04959 0.871322,-0.06576 1.30685,-0.100121 z m 66.841792,1.615234 c 0,0.510417 0,1.020833 0,1.53125 0.42774,0 0.85547,0 1.28321,0 0,-0.510417 0,-1.020833 0,-1.53125 -0.42774,0 -0.85547,0 -1.28321,0 z" />
</g></svg>
